<?xml version="1.0" encoding="utf-8"?>
<!-- Generator: Adobe Illustrator 25.3.1, SVG Export Plug-In . SVG Version: 6.00 Build 0)  -->
<svg version="1.1" id="Layer_1" xmlns="http://www.w3.org/2000/svg" xmlns:xlink="http://www.w3.org/1999/xlink" x="0px" y="0px"
	 viewBox="0 0 400 400" style="enable-background:new 0 0 400 400;" xml:space="preserve">
<style type="text/css">
	.st0{fill:#231F20;}
</style>
<path class="st0" d="M199.8,390c-3.4,0-6.9-0.1-10.3-0.3c-95.6-5.2-174.3-84.2-179.2-179.8C7.5,156.2,27.7,103.6,65.6,65.7
	c37.9-37.9,90.5-58.1,144.2-55.4c98,5,177.1,85.7,180,183.9c0.7,24.6-2.9,58.8-24.4,81.9c-11,11.8-26.4,18.8-42.3,19.1
	c-14.9,0.3-29-5.4-39.5-15.8l-22.1-22.7L198.3,320l-102-102c-23.5-23.5-24.4-61.6-1.9-85c11.3-11.7,26.4-18.2,42.6-18.3
	c0.2,0,0.4,0,0.6,0c16,0,31,6.2,42.3,17.5l82,84.2l18.4-18.4c12.7-12.7,13.4-33.1,1.5-45.4c-6-6.2-13.9-9.6-22.5-9.7
	c-8.6-0.2-16.6,3.2-22.7,9.3l-20-20c11.5-11.5,26.7-17.8,42.9-17.5c16.2,0.1,31.3,6.7,42.6,18.3c22.5,23.3,21.7,61.5-1.9,85
	l-18.6,18.6l22.2,22.8c6.3,6.3,13.8,7.5,18.8,7.4c8.2-0.2,16.3-3.8,22.1-10.1c15.8-17,17.3-46,16.9-61.8
	c-2.5-83.5-69.8-152.3-153.2-156.5c-45.9-2.3-90.5,14.9-122.8,47.2c-32.3,32.3-49.5,77.1-47.2,122.8c4.1,81.4,71.1,148.6,152.5,153
	c38.2,2.1,74.6-8.8,105.2-31.4l16.8,22.7C280.3,377,240.5,390,199.8,390z M137.6,142.9c-0.1,0-0.2,0-0.3,0
	c-8.6,0.1-16.5,3.5-22.5,9.7c-11.9,12.3-11.2,32.7,1.5,45.4l82,82l43.7-43.7l-82.1-84.3C154,146.2,146.1,142.9,137.6,142.9z"/>
</svg>
