<?xml version="1.0" encoding="UTF-8" standalone="no"?>
<svg
   width="559.14948"
   height="262.4245"
   viewBox="0 0 559.14948 262.4245"
   version="1.1"
   xml:space="preserve"
   style="clip-rule:evenodd;fill-rule:evenodd;stroke-linejoin:round;stroke-miterlimit:2"
   id="svg20"
   xmlns="http://www.w3.org/2000/svg"
   xmlns:svg="http://www.w3.org/2000/svg"><defs
     id="defs20" /><rect
     style="fill:#292966;fill-opacity:1;stroke-width:1.26482px;-inkscape-stroke:none"
     id="rect20"
     width="559.14948"
     height="262.4245"
     x="0"
     y="0"
     rx="3.7795262"
     ry="3.7795262" /><path
     d="m 131.12474,56.71225 v 12.183 c 0,13.458 -10.909,24.367 -24.367,24.367 H 94.574738 v 24.367 h 12.183002 c 26.915,0 48.734,-21.818 48.734,-48.733 v -12.184 z"
     style="fill:#91dc47;fill-rule:nonzero"
     id="path1" /><path
     d="m 179.85874,117.62925 h 12.184 v -24.366 h -12.184 c -26.915,0 -48.734,21.819 -48.734,48.733 v 12.184 c 0,26.914 21.819,48.735 48.734,48.735 h 12.184 v -24.369 h -12.184 c -13.458,0 -24.367,-10.909 -24.367,-24.366 v -12.184 c 0,-13.457 10.91,-24.367 24.367,-24.367"
     style="fill:#90b4fe;fill-rule:nonzero"
     id="path2" /><path
     d="m 233.06774,131.77125 c -2.482,0 -4.66,-0.395 -6.53,-1.182 -1.872,-0.788 -3.449,-1.891 -4.728,-3.31 -1.281,-1.418 -2.237,-3.102 -2.867,-5.052 -0.63,-1.951 -0.945,-4.108 -0.945,-6.472 0,-2.364 0.345,-4.53 1.034,-6.501 0.689,-1.969 1.664,-3.673 2.926,-5.112 1.26,-1.438 2.807,-2.56 4.639,-3.369 1.832,-0.806 3.871,-1.211 6.117,-1.211 1.378,0 2.757,0.118 4.136,0.355 1.379,0.236 2.698,0.611 3.96,1.123 l -1.241,4.669 c -0.828,-0.394 -1.783,-0.71 -2.866,-0.946 -1.084,-0.236 -2.237,-0.355 -3.457,-0.355 -3.074,0 -5.428,0.966 -7.063,2.897 -1.635,1.93 -2.452,4.747 -2.452,8.45 0,1.655 0.186,3.172 0.561,4.551 0.374,1.379 0.965,2.561 1.773,3.546 0.807,0.985 1.841,1.743 3.103,2.275 1.26,0.531 2.797,0.798 4.609,0.798 1.458,0 2.778,-0.138 3.96,-0.414 1.182,-0.275 2.107,-0.571 2.777,-0.887 l 0.769,4.609 c -0.316,0.199 -0.769,0.385 -1.36,0.562 -0.59,0.178 -1.261,0.335 -2.009,0.473 -0.748,0.138 -1.546,0.257 -2.393,0.355 -0.848,0.097 -1.665,0.148 -2.453,0.148"
     style="fill:#e8e8e8;fill-rule:nonzero"
     id="path3" /><path
     d="m 257.47574,131.65225 c -3.389,-0.079 -5.792,-0.807 -7.21,-2.186 -1.418,-1.379 -2.127,-3.526 -2.127,-6.442 v -36.877 l 5.495,-0.946 v 36.936 c 0,0.908 0.079,1.655 0.237,2.246 0.157,0.591 0.414,1.064 0.769,1.418 0.354,0.355 0.827,0.621 1.418,0.798 0.59,0.178 1.319,0.325 2.187,0.444 z"
     style="fill:#e8e8e8;fill-rule:nonzero"
     id="path4" /><path
     d="m 286.84774,115.69625 c 0,-3.466 -0.779,-6.214 -2.334,-8.244 -1.557,-2.029 -3.674,-3.044 -6.354,-3.044 -2.679,0 -4.797,1.015 -6.352,3.044 -1.558,2.03 -2.335,4.778 -2.335,8.244 0,3.467 0.777,6.216 2.335,8.244 1.555,2.03 3.673,3.044 6.352,3.044 2.68,0 4.797,-1.014 6.354,-3.044 1.555,-2.028 2.334,-4.777 2.334,-8.244 m 5.733,0 c 0,2.443 -0.355,4.649 -1.065,6.619 -0.709,1.971 -1.704,3.664 -2.984,5.083 -1.281,1.418 -2.808,2.511 -4.58,3.279 -1.773,0.769 -3.704,1.152 -5.792,1.152 -2.088,0 -4.019,-0.383 -5.791,-1.152 -1.773,-0.768 -3.301,-1.861 -4.581,-3.279 -1.28,-1.419 -2.274,-3.112 -2.984,-5.083 -0.709,-1.97 -1.063,-4.176 -1.063,-6.619 0,-2.403 0.354,-4.6 1.063,-6.589 0.71,-1.99 1.704,-3.694 2.984,-5.112 1.28,-1.419 2.808,-2.512 4.581,-3.28 1.772,-0.769 3.703,-1.153 5.791,-1.153 2.088,0 4.019,0.384 5.792,1.153 1.772,0.768 3.299,1.861 4.58,3.28 1.28,1.418 2.275,3.122 2.984,5.112 0.71,1.989 1.065,4.186 1.065,6.589"
     style="fill:#e8e8e8;fill-rule:nonzero"
     id="path5" /><path
     d="m 304.10374,94.77525 c -0.985,0 -1.823,-0.325 -2.512,-0.975 -0.689,-0.65 -1.034,-1.526 -1.034,-2.63 0,-1.103 0.345,-1.979 1.034,-2.63 0.689,-0.65 1.527,-0.974 2.512,-0.974 0.985,0 1.822,0.324 2.512,0.974 0.689,0.651 1.034,1.527 1.034,2.63 0,1.104 -0.345,1.98 -1.034,2.63 -0.69,0.65 -1.527,0.975 -2.512,0.975 m -7.742,47.338 c -0.473,0 -1.083,-0.059 -1.832,-0.177 -0.748,-0.119 -1.379,-0.277 -1.891,-0.474 l 0.709,-4.491 c 0.395,0.119 0.848,0.217 1.36,0.296 0.512,0.079 0.985,0.118 1.418,0.118 1.891,0 3.24,-0.582 4.048,-1.743 0.807,-1.162 1.212,-2.867 1.212,-5.112 v -30.199 h 5.495 v 30.14 c 0,3.938 -0.896,6.864 -2.688,8.776 -1.794,1.91 -4.403,2.866 -7.831,2.866"
     style="fill:#e8e8e8;fill-rule:nonzero"
     id="path6" /><path
     d="m 341.86774,130.17525 c -1.262,0.316 -2.926,0.65 -4.994,1.004 -2.068,0.355 -4.462,0.533 -7.181,0.533 -2.364,0 -4.353,-0.346 -5.969,-1.035 -1.615,-0.689 -2.916,-1.664 -3.9,-2.925 -0.985,-1.261 -1.694,-2.748 -2.127,-4.462 -0.434,-1.713 -0.651,-3.615 -0.651,-5.703 v -17.257 h 5.496 v 16.074 c 0,3.744 0.592,6.423 1.774,8.038 1.181,1.616 3.17,2.423 5.969,2.423 0.59,0 1.201,-0.019 1.832,-0.059 0.629,-0.039 1.22,-0.089 1.772,-0.148 0.552,-0.059 1.054,-0.118 1.507,-0.177 0.453,-0.059 0.778,-0.127 0.975,-0.206 v -25.945 h 5.497 z"
     style="fill:#e8e8e8;fill-rule:nonzero"
     id="path7" /><path
     d="m 363.73274,99.68025 c 0.472,0 1.014,0.03 1.625,0.089 0.61,0.058 1.211,0.138 1.803,0.236 0.59,0.099 1.132,0.198 1.625,0.296 0.492,0.098 0.857,0.187 1.093,0.266 l -0.946,4.786 c -0.434,-0.156 -1.152,-0.343 -2.157,-0.561 -1.004,-0.216 -2.295,-0.325 -3.871,-0.325 -1.025,0 -2.038,0.109 -3.043,0.325 -1.005,0.218 -1.665,0.365 -1.98,0.444 v 25.825 h -5.496 v -29.431 c 1.3,-0.472 2.915,-0.916 4.846,-1.329 1.93,-0.414 4.097,-0.621 6.501,-0.621"
     style="fill:#e8e8e8;fill-rule:nonzero"
     id="path8" /><path
     d="m 381.75674,131.06125 h -5.496 v -30.73 h 5.496 z m -2.778,-36.286 c -0.985,0 -1.823,-0.325 -2.512,-0.975 -0.69,-0.651 -1.034,-1.527 -1.034,-2.63 0,-1.103 0.344,-1.98 1.034,-2.63 0.689,-0.65 1.527,-0.975 2.512,-0.975 0.985,0 1.822,0.325 2.512,0.975 0.689,0.65 1.035,1.527 1.035,2.63 0,1.103 -0.346,1.979 -1.035,2.63 -0.69,0.65 -1.527,0.975 -2.512,0.975"
     style="fill:#e8e8e8;fill-rule:nonzero"
     id="path9" /><path
     d="m 399.42674,127.10325 c 2.246,0 3.91,-0.296 4.994,-0.887 1.083,-0.592 1.625,-1.536 1.625,-2.837 0,-1.339 -0.533,-2.402 -1.596,-3.191 -1.064,-0.788 -2.817,-1.674 -5.259,-2.66 -1.182,-0.472 -2.316,-0.954 -3.399,-1.448 -1.084,-0.492 -2.019,-1.073 -2.807,-1.743 -0.788,-0.669 -1.418,-1.478 -1.891,-2.422 -0.473,-0.946 -0.709,-2.108 -0.709,-3.487 0,-2.719 1.004,-4.876 3.014,-6.471 2.009,-1.597 4.747,-2.395 8.215,-2.395 0.865,0 1.733,0.051 2.6,0.149 0.866,0.098 1.674,0.217 2.422,0.354 0.749,0.139 1.41,0.286 1.981,0.443 0.57,0.158 1.014,0.295 1.329,0.414 l -1.004,4.728 c -0.591,-0.315 -1.517,-0.64 -2.778,-0.976 -1.261,-0.334 -2.778,-0.502 -4.55,-0.502 -1.537,0 -2.877,0.306 -4.019,0.916 -1.143,0.611 -1.714,1.566 -1.714,2.867 0,0.67 0.128,1.261 0.384,1.772 0.256,0.513 0.65,0.976 1.182,1.389 0.532,0.414 1.191,0.799 1.98,1.153 0.788,0.355 1.733,0.729 2.836,1.123 1.458,0.552 2.757,1.093 3.901,1.625 1.142,0.532 2.118,1.152 2.926,1.861 0.807,0.709 1.426,1.567 1.861,2.571 0.433,1.005 0.65,2.237 0.65,3.694 0,2.836 -1.054,4.984 -3.161,6.441 -2.109,1.459 -5.113,2.187 -9.013,2.187 -2.718,0 -4.846,-0.227 -6.383,-0.679 -1.536,-0.452 -2.581,-0.798 -3.132,-1.035 l 1.005,-4.728 c 0.63,0.237 1.634,0.592 3.014,1.065 1.378,0.472 3.21,0.709 5.496,0.709"
     style="fill:#e8e8e8;fill-rule:nonzero"
     id="path10" /><path
     d="m 424.83974,100.33125 h 11.643 v 4.609 h -11.643 v 14.184 c 0,1.537 0.117,2.807 0.354,3.812 0.237,1.004 0.591,1.793 1.064,2.364 0.473,0.572 1.063,0.975 1.772,1.211 0.71,0.236 1.538,0.355 2.483,0.355 1.655,0 2.985,-0.186 3.989,-0.562 1.004,-0.374 1.704,-0.64 2.098,-0.797 l 1.063,4.55 c -0.552,0.277 -1.516,0.621 -2.895,1.035 -1.379,0.413 -2.955,0.62 -4.728,0.62 -2.089,0 -3.811,-0.266 -5.172,-0.798 -1.359,-0.531 -2.452,-1.33 -3.279,-2.393 -0.827,-1.064 -1.409,-2.374 -1.743,-3.93 -0.335,-1.556 -0.503,-3.359 -0.503,-5.408 v -27.422 l 5.497,-0.945 z"
     style="fill:#e8e8e8;fill-rule:nonzero"
     id="path11" /><path
     d="m 451.66974,127.10325 c 2.245,0 3.909,-0.296 4.994,-0.887 1.082,-0.592 1.625,-1.536 1.625,-2.837 0,-1.339 -0.533,-2.402 -1.597,-3.191 -1.063,-0.788 -2.816,-1.674 -5.259,-2.66 -1.181,-0.472 -2.315,-0.954 -3.398,-1.448 -1.084,-0.492 -2.019,-1.073 -2.807,-1.743 -0.788,-0.669 -1.418,-1.478 -1.892,-2.422 -0.472,-0.946 -0.709,-2.108 -0.709,-3.487 0,-2.719 1.005,-4.876 3.015,-6.471 2.009,-1.597 4.747,-2.395 8.215,-2.395 0.865,0 1.733,0.051 2.6,0.149 0.866,0.098 1.674,0.217 2.423,0.354 0.748,0.139 1.408,0.286 1.979,0.443 0.572,0.158 1.014,0.295 1.331,0.414 l -1.005,4.728 c -0.591,-0.315 -1.518,-0.64 -2.778,-0.976 -1.261,-0.334 -2.778,-0.502 -4.55,-0.502 -1.538,0 -2.877,0.306 -4.019,0.916 -1.144,0.611 -1.714,1.566 -1.714,2.867 0,0.67 0.127,1.261 0.384,1.772 0.255,0.513 0.65,0.976 1.183,1.389 0.531,0.414 1.19,0.799 1.979,1.153 0.788,0.355 1.732,0.729 2.837,1.123 1.456,0.552 2.757,1.093 3.9,1.625 1.143,0.532 2.117,1.152 2.924,1.861 0.809,0.709 1.429,1.567 1.862,2.571 0.434,1.005 0.651,2.237 0.651,3.694 0,2.836 -1.055,4.984 -3.162,6.441 -2.109,1.459 -5.112,2.187 -9.012,2.187 -2.719,0 -4.847,-0.227 -6.384,-0.679 -1.536,-0.452 -2.58,-0.798 -3.132,-1.035 l 1.005,-4.728 c 0.63,0.237 1.635,0.592 3.014,1.065 1.379,0.472 3.212,0.709 5.497,0.709"
     style="fill:#e8e8e8;fill-rule:nonzero"
     id="path12" /><path
     d="m 224.85374,163.56125 h 11.642 v 4.61 h -11.642 v 14.184 c 0,1.536 0.118,2.807 0.354,3.811 0.237,1.005 0.591,1.794 1.064,2.365 0.473,0.572 1.064,0.975 1.773,1.211 0.709,0.236 1.537,0.355 2.482,0.355 1.655,0 2.985,-0.186 3.99,-0.562 1.004,-0.373 1.703,-0.639 2.097,-0.797 l 1.064,4.55 c -0.552,0.277 -1.517,0.621 -2.896,1.035 -1.379,0.413 -2.954,0.62 -4.727,0.62 -2.089,0 -3.812,-0.266 -5.172,-0.798 -1.359,-0.531 -2.452,-1.33 -3.279,-2.394 -0.828,-1.063 -1.41,-2.373 -1.744,-3.929 -0.335,-1.557 -0.502,-3.359 -0.502,-5.408 v -27.422 l 5.496,-0.946 z"
     style="fill:#e8e8e8;fill-rule:nonzero"
     id="path13" /><path
     d="m 264.62674,178.92725 c 0,-3.466 -0.779,-6.215 -2.334,-8.244 -1.557,-2.029 -3.674,-3.044 -6.354,-3.044 -2.679,0 -4.796,1.015 -6.352,3.044 -1.558,2.029 -2.335,4.778 -2.335,8.244 0,3.467 0.777,6.216 2.335,8.244 1.556,2.03 3.673,3.044 6.352,3.044 2.68,0 4.797,-1.014 6.354,-3.044 1.555,-2.028 2.334,-4.777 2.334,-8.244 m 5.733,0 c 0,2.443 -0.355,4.65 -1.064,6.619 -0.71,1.971 -1.705,3.663 -2.985,5.082 -1.281,1.418 -2.807,2.512 -4.58,3.28 -1.772,0.769 -3.703,1.152 -5.792,1.152 -2.088,0 -4.018,-0.383 -5.791,-1.152 -1.773,-0.768 -3.3,-1.862 -4.58,-3.28 -1.281,-1.419 -2.275,-3.111 -2.985,-5.082 -0.709,-1.969 -1.063,-4.176 -1.063,-6.619 0,-2.402 0.354,-4.6 1.063,-6.589 0.71,-1.99 1.704,-3.694 2.985,-5.112 1.28,-1.42 2.807,-2.512 4.58,-3.28 1.773,-0.769 3.703,-1.153 5.791,-1.153 2.089,0 4.02,0.384 5.792,1.153 1.773,0.768 3.299,1.86 4.58,3.28 1.28,1.418 2.275,3.122 2.985,5.112 0.709,1.989 1.064,4.187 1.064,6.589"
     style="fill:#e8e8e8;fill-rule:nonzero"
     id="path14" /><path
     d="m 297.89874,168.40725 c -0.552,-0.157 -1.291,-0.305 -2.216,-0.443 -0.926,-0.138 -2.178,-0.206 -3.753,-0.206 -2.954,0 -5.23,0.965 -6.826,2.894 -1.596,1.932 -2.393,4.492 -2.393,7.684 0,1.772 0.226,3.289 0.68,4.55 0.452,1.261 1.064,2.305 1.832,3.132 0.768,0.828 1.654,1.439 2.659,1.832 1.005,0.394 2.038,0.592 3.102,0.592 1.458,0 2.798,-0.207 4.019,-0.621 1.221,-0.414 2.187,-0.896 2.896,-1.448 z m 0.06,22.812 c -0.473,0.316 -1.389,0.719 -2.749,1.211 -1.359,0.494 -2.945,0.739 -4.757,0.739 -1.853,0 -3.596,-0.295 -5.23,-0.887 -1.636,-0.591 -3.064,-1.507 -4.285,-2.748 -1.222,-1.241 -2.186,-2.787 -2.895,-4.639 -0.71,-1.85 -1.064,-4.056 -1.064,-6.618 0,-2.246 0.334,-4.305 1.004,-6.177 0.669,-1.87 1.645,-3.486 2.925,-4.845 1.28,-1.36 2.847,-2.423 4.699,-3.192 1.851,-0.767 3.939,-1.152 6.264,-1.152 2.561,0 4.797,0.187 6.708,0.561 1.91,0.375 3.516,0.719 4.817,1.035 v 27.421 c 0,4.727 -1.222,8.156 -3.665,10.283 -2.443,2.128 -6.146,3.191 -11.11,3.191 -1.931,0 -3.753,-0.157 -5.467,-0.473 -1.714,-0.315 -3.201,-0.689 -4.462,-1.123 l 1.005,-4.787 c 1.102,0.434 2.452,0.819 4.048,1.154 1.596,0.334 3.259,0.502 4.994,0.502 3.27,0 5.623,-0.65 7.063,-1.951 1.437,-1.299 2.157,-3.368 2.157,-6.205 z"
     style="fill:#e8e8e8;fill-rule:nonzero"
     id="path15" /><path
     d="m 332.82574,175.97125 c 0.039,-2.481 -0.582,-4.52 -1.862,-6.115 -1.281,-1.596 -3.044,-2.395 -5.289,-2.395 -1.262,0 -2.374,0.247 -3.339,0.739 -0.966,0.494 -1.783,1.133 -2.453,1.921 -0.67,0.788 -1.192,1.695 -1.566,2.719 -0.375,1.025 -0.62,2.069 -0.739,3.131 z m -21.098,3.016 c 0,-2.719 0.393,-5.093 1.181,-7.122 0.788,-2.029 1.833,-3.713 3.133,-5.053 1.3,-1.339 2.797,-2.344 4.492,-3.014 1.693,-0.67 3.427,-1.005 5.2,-1.005 4.137,0 7.308,1.29 9.515,3.871 2.206,2.581 3.309,6.511 3.309,11.79 v 0.916 c 0,0.375 -0.02,0.719 -0.059,1.035 h -21.039 c 0.237,3.191 1.162,5.614 2.778,7.268 1.615,1.655 4.137,2.483 7.565,2.483 1.929,0 3.555,-0.167 4.875,-0.502 1.32,-0.335 2.314,-0.66 2.984,-0.976 l 0.769,4.609 c -0.67,0.355 -1.842,0.731 -3.517,1.123 -1.674,0.395 -3.575,0.592 -5.702,0.592 -2.68,0 -4.994,-0.404 -6.945,-1.212 -1.95,-0.807 -3.556,-1.921 -4.816,-3.34 -1.262,-1.417 -2.197,-3.101 -2.808,-5.051 -0.61,-1.95 -0.915,-4.088 -0.915,-6.412"
     style="fill:#e8e8e8;fill-rule:nonzero"
     id="path16" /><path
     d="m 352.20874,163.56125 h 11.642 v 4.61 h -11.642 v 14.184 c 0,1.536 0.118,2.807 0.354,3.811 0.237,1.005 0.591,1.794 1.064,2.365 0.473,0.572 1.064,0.975 1.773,1.211 0.709,0.236 1.537,0.355 2.482,0.355 1.655,0 2.985,-0.186 3.989,-0.562 1.005,-0.373 1.704,-0.639 2.098,-0.797 l 1.064,4.55 c -0.552,0.277 -1.517,0.621 -2.896,1.035 -1.379,0.413 -2.954,0.62 -4.728,0.62 -2.089,0 -3.811,-0.266 -5.171,-0.798 -1.359,-0.531 -2.452,-1.33 -3.28,-2.394 -0.827,-1.063 -1.409,-2.373 -1.743,-3.929 -0.335,-1.557 -0.503,-3.359 -0.503,-5.408 v -27.422 l 5.497,-0.946 z"
     style="fill:#e8e8e8;fill-rule:nonzero"
     id="path17" /><path
     d="m 371.41574,194.29325 v -44.915 l 5.497,-0.945 v 15.719 c 1.024,-0.393 2.116,-0.7 3.279,-0.916 1.161,-0.216 2.313,-0.325 3.457,-0.325 2.442,0 4.471,0.346 6.088,1.034 1.614,0.691 2.904,1.656 3.87,2.897 0.965,1.24 1.644,2.727 2.039,4.462 0.394,1.733 0.591,3.643 0.591,5.732 v 17.257 h -5.495 v -16.075 c 0,-1.891 -0.13,-3.507 -0.386,-4.847 -0.255,-1.339 -0.678,-2.422 -1.269,-3.25 -0.591,-0.827 -1.38,-1.428 -2.364,-1.803 -0.986,-0.374 -2.207,-0.56 -3.665,-0.56 -0.591,0 -1.202,0.039 -1.832,0.117 -0.63,0.08 -1.231,0.168 -1.803,0.266 -0.57,0.098 -1.084,0.207 -1.536,0.326 -0.454,0.117 -0.779,0.217 -0.974,0.295 v 25.531 h -5.498 z"
     style="fill:#e8e8e8;fill-rule:nonzero"
     id="path18" /><path
     d="m 425.13574,175.97125 c 0.039,-2.481 -0.581,-4.52 -1.861,-6.115 -1.282,-1.596 -3.043,-2.395 -5.289,-2.395 -1.262,0 -2.374,0.247 -3.34,0.739 -0.966,0.494 -1.782,1.133 -2.451,1.921 -0.671,0.788 -1.193,1.695 -1.568,2.719 -0.374,1.025 -0.62,2.069 -0.738,3.131 z m -21.098,3.016 c 0,-2.719 0.394,-5.093 1.182,-7.122 0.788,-2.029 1.832,-3.713 3.133,-5.053 1.3,-1.339 2.797,-2.344 4.491,-3.014 1.693,-0.67 3.428,-1.005 5.2,-1.005 4.138,0 7.308,1.29 9.515,3.871 2.207,2.581 3.309,6.511 3.309,11.79 v 0.916 c 0,0.375 -0.019,0.719 -0.058,1.035 h -21.039 c 0.236,3.191 1.162,5.614 2.777,7.268 1.615,1.655 4.137,2.483 7.566,2.483 1.928,0 3.554,-0.167 4.875,-0.502 1.319,-0.335 2.314,-0.66 2.984,-0.976 l 0.768,4.609 c -0.669,0.355 -1.842,0.731 -3.516,1.123 -1.675,0.395 -3.575,0.592 -5.702,0.592 -2.681,0 -4.995,-0.404 -6.946,-1.212 -1.95,-0.807 -3.555,-1.921 -4.816,-3.34 -1.261,-1.417 -2.196,-3.101 -2.807,-5.051 -0.611,-1.95 -0.916,-4.088 -0.916,-6.412"
     style="fill:#e8e8e8;fill-rule:nonzero"
     id="path19" /><path
     d="m 450.72574,162.91125 c 0.473,0 1.014,0.03 1.625,0.088 0.61,0.059 1.211,0.139 1.803,0.237 0.589,0.099 1.132,0.197 1.625,0.295 0.492,0.099 0.856,0.188 1.093,0.267 l -0.947,4.786 c -0.433,-0.157 -1.151,-0.345 -2.156,-0.562 -1.005,-0.215 -2.296,-0.324 -3.87,-0.324 -1.026,0 -2.041,0.109 -3.044,0.324 -1.005,0.217 -1.666,0.367 -1.981,0.445 v 25.826 h -5.495 v -29.432 c 1.298,-0.473 2.914,-0.916 4.844,-1.33 1.931,-0.413 4.099,-0.62 6.502,-0.62"
     style="fill:#e8e8e8;fill-rule:nonzero"
     id="path20" /></svg>
