<?xml version="1.0" encoding="UTF-8"?>
<svg id="Layer_1" data-name="Layer 1" xmlns="http://www.w3.org/2000/svg" xmlns:xlink="http://www.w3.org/1999/xlink" viewBox="0 0 3358.32 760.19">
  <defs>
    <style>
      .cls-1 {
        fill: url(#linear-gradient);
      }

      .cls-1, .cls-2, .cls-3, .cls-4, .cls-5, .cls-6, .cls-7, .cls-8, .cls-9, .cls-10, .cls-11, .cls-12, .cls-13 {
        stroke-width: 0px;
      }

      .cls-2 {
        fill: url(#radial-gradient);
      }

      .cls-3 {
        fill: url(#linear-gradient-11);
      }

      .cls-4 {
        fill: url(#linear-gradient-10);
      }

      .cls-5 {
        fill: url(#linear-gradient-4);
      }

      .cls-6 {
        fill: url(#linear-gradient-2);
      }

      .cls-7 {
        fill: url(#linear-gradient-3);
      }

      .cls-8 {
        fill: url(#linear-gradient-8);
      }

      .cls-9 {
        fill: url(#linear-gradient-9);
      }

      .cls-10 {
        fill: url(#linear-gradient-7);
      }

      .cls-11 {
        fill: url(#linear-gradient-5);
      }

      .cls-12 {
        fill: url(#linear-gradient-6);
      }

      .cls-13 {
        fill: #091f35;
      }
    </style>
    <linearGradient id="linear-gradient" x1="2935.94" y1="380.03" x2="3358.59" y2="641.26" gradientUnits="userSpaceOnUse">
      <stop offset="0" stop-color="#febf4d"/>
      <stop offset=".09" stop-color="#fcb751"/>
      <stop offset=".22" stop-color="#f7a35e"/>
      <stop offset=".37" stop-color="#ef8173"/>
      <stop offset=".55" stop-color="#e55390"/>
      <stop offset=".6" stop-color="#e24699"/>
      <stop offset=".68" stop-color="#de4699"/>
      <stop offset=".75" stop-color="#d4479a"/>
      <stop offset=".81" stop-color="#c2499b"/>
      <stop offset=".87" stop-color="#a94b9d"/>
      <stop offset=".93" stop-color="#8a4f9f"/>
      <stop offset=".96" stop-color="#7b51a1"/>
    </linearGradient>
    <linearGradient id="linear-gradient-2" x1="2970.28" y1="350.11" x2="3147.4" y2="795.72" gradientUnits="userSpaceOnUse">
      <stop offset="0" stop-color="#febf4d"/>
      <stop offset=".09" stop-color="#faaf56"/>
      <stop offset=".26" stop-color="#f1886f"/>
      <stop offset=".49" stop-color="#e24897"/>
      <stop offset=".49" stop-color="#e24699"/>
      <stop offset=".97" stop-color="#7b51a1"/>
    </linearGradient>
    <linearGradient id="linear-gradient-3" x1="2814.52" y1="404.79" x2="3088.32" y2="795.29" gradientUnits="userSpaceOnUse">
      <stop offset=".08" stop-color="#febf4d"/>
      <stop offset=".22" stop-color="#f49567"/>
      <stop offset=".46" stop-color="#e24699"/>
      <stop offset=".82" stop-color="#7b3487"/>
      <stop offset="1" stop-color="#4c2c80"/>
    </linearGradient>
    <linearGradient id="linear-gradient-4" x1="2833.83" y1="363.4" x2="2877.17" y2="795.36" gradientUnits="userSpaceOnUse">
      <stop offset=".07" stop-color="#febf4d"/>
      <stop offset=".28" stop-color="#ed7879"/>
      <stop offset=".44" stop-color="#e24699"/>
      <stop offset=".63" stop-color="#98398c"/>
      <stop offset=".79" stop-color="#612f83"/>
      <stop offset=".86" stop-color="#4c2c80"/>
    </linearGradient>
    <linearGradient id="linear-gradient-5" x1="3010.79" y1="22.4" x2="3095.94" y2="136.05" gradientUnits="userSpaceOnUse">
      <stop offset=".44" stop-color="#febf4d"/>
      <stop offset=".53" stop-color="#fcba50"/>
      <stop offset=".64" stop-color="#f9ab59"/>
      <stop offset=".75" stop-color="#f49467"/>
      <stop offset=".87" stop-color="#ec727c"/>
      <stop offset=".99" stop-color="#e24897"/>
      <stop offset="1" stop-color="#e24699"/>
    </linearGradient>
    <linearGradient id="linear-gradient-6" x1="3105.44" y1="41.18" x2="3267.14" y2="257.8" gradientUnits="userSpaceOnUse">
      <stop offset=".18" stop-color="#fbc737"/>
      <stop offset=".28" stop-color="#fac13e"/>
      <stop offset=".43" stop-color="#f8b052"/>
      <stop offset=".61" stop-color="#f59673"/>
      <stop offset=".81" stop-color="#f071a1"/>
      <stop offset=".83" stop-color="#f06ca8"/>
    </linearGradient>
    <linearGradient id="linear-gradient-7" x1="3104.24" y1="41.95" x2="3214.56" y2="226.62" gradientUnits="userSpaceOnUse">
      <stop offset=".34" stop-color="#febf4d"/>
      <stop offset=".51" stop-color="#f7a45d"/>
      <stop offset=".87" stop-color="#e75f88"/>
      <stop offset="1" stop-color="#e24699"/>
    </linearGradient>
    <linearGradient id="linear-gradient-8" x1="2805.86" y1="159.29" x2="3466.24" y2="484.23" gradientUnits="userSpaceOnUse">
      <stop offset=".33" stop-color="#febf4d"/>
      <stop offset=".38" stop-color="#fcb850"/>
      <stop offset=".45" stop-color="#f8a75b"/>
      <stop offset=".52" stop-color="#f18b6d"/>
      <stop offset=".61" stop-color="#e86386"/>
      <stop offset=".66" stop-color="#e24699"/>
      <stop offset="1" stop-color="#6f54a3"/>
    </linearGradient>
    <linearGradient id="linear-gradient-9" x1="2810.48" y1="186.12" x2="3305.6" y2="274.85" gradientUnits="userSpaceOnUse">
      <stop offset=".42" stop-color="#fbc737"/>
      <stop offset=".52" stop-color="#f8b842"/>
      <stop offset=".7" stop-color="#f0915f"/>
      <stop offset=".95" stop-color="#e4528f"/>
      <stop offset="1" stop-color="#e24699"/>
    </linearGradient>
    <radialGradient id="radial-gradient" cx="2877.63" cy="236.5" fx="2829.93" fy="236.5" r="122.28" gradientUnits="userSpaceOnUse">
      <stop offset="0" stop-color="#febf4d"/>
      <stop offset=".62" stop-color="#fff"/>
    </radialGradient>
    <linearGradient id="linear-gradient-10" x1="2716.05" y1="193.85" x2="2886.14" y2="448.98" gradientUnits="userSpaceOnUse">
      <stop offset=".13" stop-color="#febf4d"/>
      <stop offset=".7" stop-color="#f2664c"/>
    </linearGradient>
    <linearGradient id="linear-gradient-11" x1="2842.9" y1="234.87" x2="2847.44" y2="458.97" gradientUnits="userSpaceOnUse">
      <stop offset="0" stop-color="#febf4d"/>
      <stop offset=".48" stop-color="#f8924c"/>
      <stop offset="1" stop-color="#f2664c"/>
    </linearGradient>
  </defs>
  <g>
    <path class="cls-1" d="m3199.72,387.81c-90.63-49.8-177.97-65.31-286.89-51.73-.62.08-2.31.27-3.57.45,164.8,15.82,298.4,167.76,299.24,336.73.04,7.34-.61,18.55-1.15,26.97-.3,4.78,5.02,7.87,9,5.2,23.6-15.84,44.55-35.63,60.1-59.43,35-53.58,49.19-111.86,46.42-156.76-21.13-28.01-58.64-65.98-123.16-101.43Z"/>
    <path class="cls-6" d="m3208.25,659.08c-1.32,1.75-2.32,3.49-3.69,5.22-41.24,51.84-98.25,83.47-158.61,93.63-13.07,2.2-26.38,2.83-39.6,1.75-1.59-.14-3.18-.28-4.77-.44-4.09-.41-5.89-5.36-3.04-8.33,4.73-4.92,9.29-10.08,13.68-15.44,9.03-11.05,16.98-22.63,23.88-34.6,61.88-107.39,38.69-246.84-60.4-327.79-20.35-16.62-41.89-26.09-60.99-35.97,62.99,7.09,121.18,34.31,169.02,74.37,70.92,59.38,120.29,152.33,124.52,247.6Z"/>
    <path class="cls-7" d="m3036.05,700.87c-12.41,7.84-26.49,14.1-41.58,18.47-52.61,15.25-124.79-3.65-168.94-28.67-3.99-2.8-7.89-5.76-11.68-8.86-3.55-2.9-2.09-8.59,2.39-9.6,3.9-.87,7.79-1.87,11.67-2.99,17.22-4.99,33.22-12.14,47.8-21.08,73.15-44.82,110.43-134.48,85.42-220.85-9.62-33.18-26.65-67.28-49.52-90.57.77.08,2.3.25,3.11.39,16.03,8.3,33.14,15.94,50.49,28.07,3.42,2.38,6.86,4.92,10.23,7.67,99.09,80.95,122.49,220.63,60.61,328.02Z"/>
    <path class="cls-5" d="m2875.67,648.14h-.01c-1.41.04-2.84.06-4.28.07-53.74.23-94.7-21.51-118.66-45.17-8.36-8.27-15.55-17.66-21.31-27.91-2.15-3.83.98-8.39,5.32-7.76,7.15,1.04,14.45,1.62,21.86,1.68.63.03,1.22.03,1.85.03h.27c24.01.39,47.07-4.91,67.86-14.8.36-.15.72-.33,1.07-.51,48.62-22.67,84.25-68.49,92.74-123.24,1.28-8.26,1.94-16.72,1.94-25.33,0-19.87-3.55-38.9-10.04-56.51-1.52-4.14-3.19-8.19-5.01-12.15.76.02,1.54.08,2.34.18,22.87,23.29,39.86,57.39,49.48,90.57,25.01,86.37-12.27,176.03-85.42,220.85Z"/>
    <path class="cls-11" d="m3133.92,114.74c-49.13-16.04-101.44-21.04-151.4-13.23,45.71-25.68,70.57-75.76,79.21-96.32,2.08-4.94,7.93-6.7,12.29-3.75,37.29,25.19,57.38,68.59,59.9,113.3Z"/>
    <path class="cls-12" d="m3225.02,160.08c-13.98-9.77-28.7-18.47-43.95-26.05-46.4-23.06-97.78-35.69-148.64-36.12,3.49-.37,21.99-2.37,28.94-4,44.7-10.54,98.71-48.9,118.96-86.7,1.31-2.44,3.64-3.79,6.05-3.91,1.91-.11,3.87.55,5.43,2.03,41.04,38.95,50.08,101.49,33.21,154.75Z"/>
    <path class="cls-10" d="m3181.06,134.03c1.86-2.93,3.48-5.97,4.81-9.13,23.97-56.84,6.8-106.74.51-121.6-2.42.13-4.75,1.48-6.05,3.92-20.25,37.8-74.27,76.16-118.96,86.69-6.96,1.64-25.46,3.63-28.94,4,50.86.43,102.23,13.07,148.63,36.12Z"/>
    <path class="cls-8" d="m3351.64,518.87c-1.19,4.48-7.31,5.11-9.4.98-12.33-24.26-49.14-80.63-142.71-132.04-91.57-50.31-179.75-65.6-290.25-51.26-5-9.47-24.89-39.59-34.54-49.92h0c9.68-13.68,136.23-138.52,339.49-52.42,100.68,42.64,165.81,177.58,137.42,284.67Z"/>
    <path class="cls-9" d="m3335.36,296.31c-35.89-88.97-113.58-152.9-201.44-181.57-49.13-16.04-101.44-21.04-151.4-13.23-74.14,11.59-143.1,51.41-188.84,125.29,0,0,0,0,0,0,12.04,3.54,49.86,26.39,81.05,59.81,13.87,14.86,26.34,31.76,34.53,49.92,0,0,0,0,0,.01.27-.24,142-75.3,229.14-73.11,61.47,1.55,125.25,15.73,184.64,41.29,13.35,5.93,15.69-.74,12.31-8.41Z"/>
    <path class="cls-2" d="m2997.93,211.17c-42.63,12.01-75.04,32.47-95.98,49.21-4.32-9.18-6.14-19.69-4.62-30.51,4.14-29.52,31.43-50.08,60.95-45.94,17.43,2.44,31.73,12.96,39.65,27.23Z"/>
    <path class="cls-4" d="m2874.73,286.61c-39.35,49.56-86.55,66.5-93.69,68.85-.15.05-.28.09-.39.12-.13.05-.24.08-.32.1-.11.04-.17.06-.2.07h-.01c-10.33,3.29-19.97,8.23-28.83,15.88-5.68,4.92-14.47,2.12-16.27-5.17-7.07-28.55-5.99-89.88,37.45-125.83,5.92-4.9,20.43-13.64,21.21-13.83,12.04,3.54,49.86,26.39,81.05,59.81Z"/>
    <path class="cls-3" d="m2909.27,336.54c-47.87,16.37-92.16,7.82-128.23,18.92,7.14-2.35,54.34-19.29,93.69-68.85,13.87,14.86,26.35,31.77,34.54,49.93Z"/>
  </g>
  <g>
    <path class="cls-13" d="m0,425.09C0,234.23,150.32,98.15,364.1,98.15c63.46,0,132.71,11.82,171.55,29.44v119.19h-4.34l-148.63-106.41c-7.72-2.65-23.65-4.34-38.85-4.34-112.44,0-191.82,104.72-191.82,249.24,0,161.42,98.93,287.13,224.63,287.13,7.48,0,15.92-.97,25.33-2.65l-2.41-.97v-268.07l-38.12-46.57v-4.34h222.22v4.34l-38.12,46.57v311.74h-4.34l-96.27-29.68c-37.16,18.58-94.58,32.09-146.22,32.09C121.61,714.87,0,597.36,0,425.09Z"/>
    <path class="cls-13" d="m686.45,343.29l-44.88-44.88v-3.38l159.73-42.22h8.44l6.03,90.48h5.07c36.43-64.18,68.52-90.48,109.06-90.48,16.89,0,31.37,5.07,38.85,11.82v136.81h-4.34l-85.41-57.43c-3.38-.72-6.03-.72-7.72-.72-17.61,0-42.95,16.89-51.39,37.16v276.99l44.64,40.54v4.34h-216.19v-4.34l38.12-40.54v-314.15h0Z"/>
    <path class="cls-13" d="m1004.94,702.08v-3.38l38.12-41.5v-313.91l-44.88-43.91v-4.34l169.86-42.22h8.44v404.63l38.12,41.5v3.38h-209.67v-.24Zm32.09-583.42c0-41.5,27.99-66.84,72.63-66.84s72.63,25.33,72.63,66.84-27.75,65.87-72.63,65.87-72.63-25.33-72.63-65.87Z"/>
    <path class="cls-13" d="m1276.63,702.08v-4.34l38.12-40.54v-343.59h-60.08v-3.38l60.8-52.36c18.58-122.57,93.86-206.06,185.79-206.06,22.92,0,49.95,5.07,60.8,11.1l-13.51,110.75h-4.34l-120.88-53.32c-26.3,2.65-48.98,45.6-48.98,84.45,0,49.95,38.12,77.69,103.03,77.69h112.44c6.76-130.05,79.38-230.67,169.86-230.67,21.23,0,46.57,5.07,58.39,11.1l-14.48,109.78h-4.34l-107.37-50.67c-24.61,2.41-43.91,38.85-43.91,78.66,0,54.05,35.47,82.04,103.99,82.04h258.41l-6.76,48.26v328.04l38.12,39.81v3.38h-210.16v-3.38l38.85-41.5v-343.72h-147.91v343.83l50.67,40.54v4.34h-222.95v-4.34l38.85-41.5v-342.86h-141.15v343.83l50.67,40.54v4.34h-221.98v-.24ZM1864.63,118.66c0-41.5,27.75-66.84,72.63-66.84s73.59,25.33,73.59,66.84-27.99,65.87-73.59,65.87-72.63-25.33-72.63-65.87Z"/>
    <path class="cls-13" d="m2275.78,657.44l38.12,40.54v4.34h-209.67v-4.34l38.12-40.54v-313.96l-44.88-44.88v-4.34l159.73-41.5h8.44l6.03,79.38h5.79c46.33-53.32,96.27-79.38,152.01-79.38,75.28,0,127.64,48.98,127.64,118.23v286.4l38.12,40.54v4.34h-210.4v-4.34l38.85-43.19v-257.21c0-41.5-25.33-66.84-65.87-66.84-27.02,0-54.05,10.86-82.04,32.81v294.12-.19Z"/>
  </g>
</svg>