<?xml version="1.0" encoding="UTF-8" standalone="no"?>
<svg
   viewBox="0 0 559.14947 262.4245"
   version="1.1"
   id="svg6"
   width="559.14948"
   height="262.4245"
   xmlns="http://www.w3.org/2000/svg"
   xmlns:svg="http://www.w3.org/2000/svg"
   xmlns:rdf="http://www.w3.org/1999/02/22-rdf-syntax-ns#"
   xmlns:cc="http://creativecommons.org/ns#"
   xmlns:dc="http://purl.org/dc/elements/1.1/">
  <metadata
     id="metadata12">
    <rdf:RDF>
      <cc:Work
         rdf:about="">
        <dc:format>image/svg+xml</dc:format>
        <dc:type
           rdf:resource="http://purl.org/dc/dcmitype/StillImage" />
      </cc:Work>
    </rdf:RDF>
  </metadata>
  <defs
     id="defs10" />
  <rect
     style="font-variation-settings:normal;clip-rule:evenodd;opacity:1;vector-effect:none;fill:#820ad1;fill-opacity:1;fill-rule:evenodd;stroke-width:4.549;stroke-linecap:butt;stroke-linejoin:miter;stroke-miterlimit:4;stroke-dasharray:none;stroke-dashoffset:0;stroke-opacity:1;-inkscape-stroke:none;stop-color:#000000;stop-opacity:1"
     id="rect20"
     width="559.14948"
     height="262.4245"
     x="0"
     y="0"
     rx="3.7795262"
     ry="3.7795262" />
  <g
     id="g1"
     transform="matrix(0.553305,0,0,0.553305,134.81169,-364.00564)">
    <path
       d="m 118.58731,794.60093 c 14.15846,-14.94464 32.93942,-23.67435 55.00378,-23.67435 42.98331,0 71.48165,31.53065 76.93401,78.76565 1.76777,15.3395 1.7516,36.9658 1.73389,62.0147 0,2.5688 0,5.1739 0,7.8117 v 93.83747 h -59.11044 v -69.40517 c 0,0 -0.12055,-59.4009 -0.48186,-70.5026 -1.58618,-48.3514 -30.07678,-78.733 -74.08169,-78.7656 -13.27642,14.0927 -20.390372,31.3234 -21.439402,57.6698 -0.14412,3.6747 -0.10791,16.6998 -0.0606,33.8665 0.0248,8.8944 0.0533,18.9009 0.0606,29.2945 0.045,45.2389 0,97.85267 0,97.85267 H 38.035068 V 906.55243 c 0,-3.6599 -0.067,-7.3509 -0.133,-11.0567 -0.13393,-7.4541 -0.26903,-14.9656 0.133,-22.4034 0.66803,-12.3992 2.80293,-24.5883 8.5618,-35.9115 13.18163,-25.9411 40.19134,-42.6435 68.985722,-42.6435 1.00577,0 2.01244,0.023 3.00821,0.062 z"
       class="Path-xrtkpd-0 eqfYiR"
       id="path2-6"
       style="fill:#ffffff;stroke-width:7.73768" />
    <path
       d="m 485.23217,916.94683 c 0.40221,-7.4379 0.26714,-14.9501 0.1336,-22.4035 -0.0672,-3.7057 -0.1336,-7.3967 -0.1336,-11.0567 v -106.814 h -59.10962 c 0,0 -0.0443,52.6139 0,97.8522 0.01,10.3936 0.0346,20.3993 0.0593,29.2937 0.0478,17.1675 0.0841,30.1926 -0.0593,33.8673 -1.04911,26.3473 -8.16343,43.5776 -21.43959,57.6707 -44.00398,-0.031 -72.49385,-30.4153 -74.08105,-78.7657 -0.36125,-11.1017 -0.51418,-38.6511 -0.51418,-70.5584 v -69.40516 l -59.06635,0.0541 v 93.83786 c 0,2.6377 0,5.2421 0,7.8116 -0.0192,25.049 -0.033,46.6745 1.73387,62.0147 5.44071,47.2352 33.93905,78.76567 76.92255,78.76567 22.06501,0 40.84587,-8.7299 55.00436,-23.67457 0.99508,0.039 2.00094,0.062 3.00679,0.062 28.79408,0 55.80412,-16.7021 68.98605,-42.643 5.75889,-11.3243 7.89328,-23.5125 8.56105,-35.9117 z"
       class="Path-xrtkpd-0 eqfYiR"
       id="path4-5"
       style="fill:#ffffff;stroke-width:7.73768" />
  </g>
</svg>
