<svg width="1446" xmlns="http://www.w3.org/2000/svg" height="485" fill="none"><g xml:space="preserve" style="fill: rgb(0, 0, 0);"><path d="M110.597 25.236 65.103 89.508v36.277L25.1 144.711v237.374l154.13 73.342 9.413 4.337 9.412-4.337 154.131-73.342V144.711l-40.396-19.715.392-35.488-1.568-1.971-43.533-62.301-45.494 64.272-32.944-46.923-32.944 46.529-1.177-1.577-43.925-62.301Zm7.844 37.459 17.649 24.842H84.713l17.256-24.448 16.472-.394Zm156.483 0 17.649 24.842h-51.377l17.256-24.448 16.472-.394Zm-78.437 17.35 17.648 24.841h-51.377l17.257-24.447 16.472-.394ZM80.007 99.76h24.315v82.411l-24.315-11.435V99.76Zm36.865 0h24.316v99.76l-24.316-11.435V99.76Zm119.618 0h24.316v87.931l-24.316 11.435V99.76Zm36.866 0h24.315v70.581l-24.315 11.435V99.76Zm-115.304 17.744h24.316v101.732l-24.316-11.435v-90.297Zm36.866 0h24.316v90.297l-24.316 11.435V117.504Zm117.656 27.207 21.571 8.675-21.571 10.252v-18.927Zm-247.471 0v18.927l-21.57-10.252 21.57-8.675Zm-21.178 29.968 135.305 64.272v195.577L43.925 369.862V174.679Zm289.435 0v195.577l-135.305 64.272V238.951l135.305-64.272ZM1349.522 126.573v45.74h-24.316v18.533h24.316v98.182c0 7.098.392 13.801 1.568 20.11 1.569 6.309 3.53 11.829 7.06 16.167 3.529 4.732 7.843 8.28 13.334 10.646 5.491 2.76 12.158 3.943 20.002 3.943 3.529 0 7.844-.394 12.55-1.577 4.706-1.183 9.412-2.76 14.119-4.337l2.745-1.183-5.883-17.744-3.137 1.577c-5.883 2.76-12.158 4.732-18.433 4.732-5.099 0-9.021-.789-12.158-1.972-2.745-1.577-5.099-3.549-6.667-5.914-1.569-2.761-3.138-5.915-3.922-9.464-.785-4.337-.785-8.675-.785-13.406v-99.76h45.886v-18.533h-45.493v-45.74h-20.786ZM904.779 168.37c-11.373 0-21.57 2.76-30.59 8.675-7.452 4.731-14.511 10.252-21.571 16.955v-21.687h-19.609v163.638h20.394V217.264c9.02-9.069 17.256-18.138 24.315-22.475 7.06-4.732 14.904-7.098 23.924-7.098 12.158 0 20.002 3.549 24.708 10.646 5.098 7.098 7.844 18.927 7.844 35.488v102.126h20.393V231.854c0-20.899-3.921-36.671-12.157-47.712-7.844-10.646-20.786-15.772-37.651-15.772ZM782.417 188.48c-11.374-13.407-27.061-20.11-46.279-20.11-9.02 0-18.04 1.971-26.669 6.309-8.628 3.943-16.079 9.463-22.746 16.955-6.668 7.492-11.766 16.167-16.08 26.813-3.922 10.646-5.883 22.476-5.883 35.882 0 13.012 1.961 25.236 5.883 35.882 3.922 10.252 9.412 19.322 16.08 26.813 6.667 7.098 14.903 13.013 23.923 16.956 9.413 3.943 19.217 5.914 29.414 5.914 11.766 0 21.571-1.577 29.807-5.126 7.451-3.154 14.511-6.703 21.178-10.646l2.353-1.577-9.02-16.956-2.746 1.972c-5.49 4.337-11.373 6.703-18.04 9.463-6.275 2.366-14.119 3.549-22.355 3.549-8.628 0-16.08-.788-22.747-3.943-6.667-3.154-12.55-7.886-17.649-13.406-4.706-5.915-8.628-12.618-11.373-20.504-2.353-7.098-3.53-14.984-3.922-23.659h112.95c0-3.154.393-6.309.393-9.069v-5.915c.392-23.658-5.099-42.191-16.472-55.597Zm-96.479 52.443a77.61 77.61 0 0 1 5.099-20.899c3.137-7.097 7.059-13.012 11.373-18.138 4.706-5.126 9.805-8.675 15.688-11.04 5.49-2.761 11.765-3.944 18.04-3.944 13.335 0 23.532 4.732 31.375 13.801 7.06 8.675 10.982 22.082 11.374 40.22h-92.949ZM571.027 168.37ZM636.522 251.569c0-24.841-5.49-44.951-16.079-60.329-10.982-15.378-27.846-23.264-49.416-23.264-10.197 0-20.394 2.365-29.806 7.491-7.844 4.338-14.119 8.675-20.787 13.801v-17.349h-20.001v235.008h20.394v-83.594c6.667 4.732 13.334 8.675 20.001 11.435 8.236 3.549 16.08 5.126 23.924 5.126 9.412 0 18.825-1.971 27.453-5.914 9.02-3.943 16.864-10.252 23.139-17.35 6.667-7.886 12.158-16.955 16.08-27.996 3.137-11.041 5.098-23.264 5.098-37.065Zm-25.492 28.785Zc-2.353 8.674-6.275 15.772-10.589 21.687-4.706 5.914-9.805 10.646-16.08 13.8-6.275 3.155-12.942 4.732-20.394 4.732-5.49 0-12.157-1.577-19.609-4.337-7.059-2.76-14.903-9.464-23.531-16.561v-86.748c9.02-7.886 17.648-14.984 25.1-19.321 8.236-4.338 15.687-6.704 23.139-6.704 8.628 0 15.687 1.578 21.57 4.732 5.883 3.155 10.589 7.492 14.119 13.012 3.53 5.521 6.275 12.224 8.236 20.11 1.961 7.886 2.745 16.955 2.745 26.024-.784 11.435-1.961 20.899-4.706 29.574ZM1133.033 251.569c0-24.841-5.49-44.951-16.079-60.329-10.982-15.378-27.846-23.264-49.416-23.264-10.197 0-20.394 2.365-29.807 7.491-7.843 4.338-14.118 8.675-20.786 13.801v-17.349h-20.786v235.008h20.394v-83.594c6.668 4.732 13.335 8.675 20.002 11.435 8.236 3.549 16.08 5.126 23.923 5.126 9.413 0 18.825-1.971 27.454-5.914 9.02-3.943 16.864-10.252 23.139-17.35 6.667-7.886 12.158-16.955 16.08-27.996 3.921-11.041 5.882-23.264 5.882-37.065Zm-25.492 28.785Zc-2.353 8.674-6.275 15.772-10.589 21.687-4.706 5.914-9.805 10.646-16.08 13.8-6.275 3.155-12.942 4.732-20.394 4.732-5.49 0-12.157-1.577-19.609-4.337-7.059-2.76-14.903-9.464-23.531-16.561v-86.748c9.02-7.886 17.648-14.984 25.1-19.321 8.236-4.338 15.687-6.704 23.139-6.704 8.628 0 15.687 1.578 21.57 4.732 5.883 3.155 10.589 7.492 14.119 13.012 3.53 5.521 6.275 12.224 7.844 20.11 1.961 7.886 2.745 16.955 2.745 26.024-.392 11.435-1.569 20.899-4.314 29.574ZM1300.498 218.053c-3.922-10.646-9.02-20.11-16.08-27.207-6.667-7.098-14.511-13.013-23.531-16.956-9.02-3.943-18.433-5.914-27.846-5.914-9.804 0-19.217 1.971-27.845 5.914-9.02 3.943-16.864 9.464-23.531 16.956-6.667 7.491-11.766 16.561-16.08 27.207-3.922 10.646-5.883 22.87-5.883 36.276 0 13.407 1.961 25.63 5.883 36.277 3.922 10.252 9.413 19.321 16.08 26.418 6.667 7.098 14.511 13.013 23.531 16.956 9.02 3.943 18.433 5.914 27.845 5.914 9.805 0 19.218-1.971 27.846-5.914 9.02-3.943 16.864-9.464 23.531-16.956 6.667-7.491 12.158-16.166 16.08-26.813 3.922-10.646 5.883-22.87 5.883-36.276 0-13.012-1.961-25.236-5.883-35.882Zm-19.217 63.484c-2.746 8.28-6.667 15.378-11.374 20.898-4.314 5.915-10.197 10.252-16.472 13.406-6.275 3.155-12.942 4.732-20.394 4.732-7.451 0-14.118-1.577-20.393-4.732-6.275-3.154-11.766-7.886-16.472-13.8-4.707-5.915-8.236-12.618-10.982-20.899-2.745-8.28-3.921-17.349-3.921-27.207 0-10.252 1.568-19.321 3.921-27.602 2.746-8.28 6.275-15.378 10.982-20.898 4.706-5.915 10.197-10.646 16.472-13.407 6.275-3.154 12.942-4.731 20.393-4.731 7.452 0 14.119 1.577 20.394 4.731 6.668 3.155 12.158 7.492 16.472 13.407 4.707 5.915 8.628 12.618 11.374 20.898 2.745 8.281 3.922 17.35 3.922 27.602 0 10.252-1.177 19.321-3.922 27.602Z" class="fills"/></g></svg>