<?xml version="1.0" encoding="UTF-8" standalone="no"?>
<!-- Created with Inkscape (http://www.inkscape.org/) -->

<svg
   width="29.220558mm"
   height="29.174446mm"
   viewBox="0 0 29.220558 29.174446"
   version="1.1"
   id="svg5"
   xml:space="preserve"
   inkscape:version="1.2.2 (b0a8486541, 2022-12-01)"
   sodipodi:docname="hoc-logo-square-corners-traced.svg"
   xmlns:inkscape="http://www.inkscape.org/namespaces/inkscape"
   xmlns:sodipodi="http://sodipodi.sourceforge.net/DTD/sodipodi-0.dtd"
   xmlns="http://www.w3.org/2000/svg"
   xmlns:svg="http://www.w3.org/2000/svg"><sodipodi:namedview
     id="namedview7"
     pagecolor="#ffffff"
     bordercolor="#666666"
     borderopacity="1.0"
     inkscape:showpageshadow="2"
     inkscape:pageopacity="0.0"
     inkscape:pagecheckerboard="0"
     inkscape:deskcolor="#d1d1d1"
     inkscape:document-units="mm"
     showgrid="false"
     inkscape:zoom="1.4085208"
     inkscape:cx="210.85951"
     inkscape:cy="8.164594"
     inkscape:window-width="1920"
     inkscape:window-height="1050"
     inkscape:window-x="0"
     inkscape:window-y="0"
     inkscape:window-maximized="0"
     inkscape:current-layer="layer1" /><defs
     id="defs2" /><g
     inkscape:label="Layer 1"
     inkscape:groupmode="layer"
     id="layer1"
     transform="translate(-285.57792,-68.20824)"><path
       id="path369"
       style="fill:#000000;stroke-width:0.264583"
       d="m 300.16514,68.20824 c -8.05633,-7.4e-5 -14.5873,6.530892 -14.58722,14.587223 -8e-5,8.056331 6.53089,14.587297 14.58722,14.587223 3.12381,-3.63e-4 6.16501,-1.003526 8.67596,-2.86184 l -1.29036,-1.74408 c -2.13678,1.584287 -4.72557,2.441058 -7.3856,2.444295 -6.8626,1.22e-4 -12.42595,-5.562997 -12.42611,-12.425598 -1.2e-4,-6.862803 5.56331,-12.426237 12.42611,-12.426115 6.21384,3.25e-4 11.47216,4.590762 12.31139,10.747665 0.0126,0.17262 0.0244,0.353332 0.0357,0.550354 0.15279,2.679667 -0.16434,4.034817 -1.20613,5.151106 -1.01927,1.092159 -2.25913,1.003958 -3.54552,-0.252181 -0.55184,-0.538849 -1.23202,-1.167071 -1.23202,-1.167071 0,0 0.75479,-0.874422 1.3979,-1.561961 0.8957,-0.957569 1.21137,-1.532158 1.34979,-2.455147 0.43355,-2.891127 -1.51027,-5.254867 -4.35219,-5.291667 -1.29779,-0.01681 -3.19412,0.727224 -3.19412,1.253153 l 1.30012,1.354211 c 0.40487,-0.184886 0.27441,-0.09714 0.47325,-0.20356 1.32978,-0.711672 3.27782,0.118532 3.62165,1.488465 0.0894,0.356009 0.0357,0.982917 -0.11937,1.393196 -0.3296,0.87236 -1.98799,2.201416 -1.98799,2.201416 0,0 -1.65077,-1.425637 -3.28042,-3.167765 -1.62966,-1.742128 -3.37642,-3.422546 -3.88142,-3.734656 -1.88533,-1.165198 -4.84574,-0.523488 -6.1004,1.3224 -0.32011,0.47094 -0.65883,1.369505 -0.75293,1.997294 -0.28864,1.924788 0.45182,2.963164 5.009,7.546827 l 4.02031,4.073505 4.89624,-4.742502 1.25595,1.268443 c 2.10276,2.123681 4.39902,2.23412 6.39393,0.555522 1.72051,-1.447719 2.53795,-4.538196 2.10736,-7.967472 L 314.659,80.61262 c -1.07112,-7.140111 -7.27385,-12.403773 -14.49386,-12.40438 z m -4.63072,10.077421 c 0.86496,0 1.2336,0.255216 3.34449,2.315104 l 4.73622,4.695548 -3.47738,3.308098 c -0.0845,0 -1.6658,-1.528277 -3.514,-3.396175 -3.23404,-3.268517 -3.36051,-3.43842 -3.36051,-4.510319 0,-1.472479 0.88514,-2.412256 2.27118,-2.412256 z"
       sodipodi:nodetypes="ccccccsccssscsssccssscssscsccsscccscccsss" /></g></svg>
